# xmcd
#
# Track frame offsets:
#	150
#	17016
#	33054
#	51270
#	69796
#	84784
#	100502
#	113967
#	128527
#	150822
#	165572
#	183100
#	197711
#	211747
#	230282
#	253359
#	270531
#	288097
#	304207
#
# Disc length: 4343 seconds
#
# Revision: 1
# Processed by: cddbd v1.5.2PL0 Copyright (c) Steve Scherf et al.
# Submitted via: audiograbber 1.83.01
#
DISCID=e110f513
DTITLE=Various Artist - Essential Hits 49
DYEAR=2009
DGENRE=Pop
TTITLE0=Girls Aloud - Untouchable
TTITLE1=Britney Spears - If You Seek Amy
TTITLE2=Flo Rida Ft Ne-Yo - Be On You
TTITLE3=Beyonce - Halo (Dave Aude Radio Edit)
TTITLE4=Lily Allen - Not Fair
TTITLE5=K.I.G. - Head, Shoulders, Kneez N Toez
TTITLE6=Zarif - Let Me Back
TTITLE7=Don Thomas - Come On Train
TTITLE8=The Noisettes - Don't Upset The Rhythm (Kissy Sellout Mix)
TTITLE9=Alesha Dixon - Let's Get Excited
TTITLE10=Lady Sovereign - So Human (Explicit Lyrics)
TTITLE11=Jack Penate - Tonight's Today
TTITLE12=Eoghan Quigg - 28,000 Friends (Sunset Strippers Radio Edit)
TTITLE13=Ronan Keating - Time After Time
TTITLE14=The Doves - Kingdom Of Rust
TTITLE15=The Script - Talk You Down
TTITLE16=James Morrison - Please Don't Stop The Rain
TTITLE17=Lunik - Everybody Knows
TTITLE18=Jamie Foxx Ft T-Pain - Blame It
EXTD=
EXTT0=
EXTT1=
EXTT2=
EXTT3=
EXTT4=
EXTT5=
EXTT6=
EXTT7=
EXTT8=
EXTT9=
EXTT10=
EXTT11=
EXTT12=
EXTT13=
EXTT14=
EXTT15=
EXTT16=
EXTT17=
EXTT18=
PLAYORDER=
